<svg width="21" height="20" viewBox="0 0 21 20" fill="none" xmlns="http://www.w3.org/2000/svg">
<path d="M17.9118 16.0588H4.32353C4.13824 16.0588 3.95294 15.9353 3.82941 15.8118C3.70588 15.6882 3.70588 15.4412 3.76765 15.2559L4.94118 12.2912L3.76765 1.23529H0V0H4.32353C4.63235 0 4.87941 0.247059 4.94118 0.555882L6.17647 12.2912C6.17647 12.4147 6.17647 12.4765 6.11471 12.6L5.25 14.8235H18.5294L17.9118 16.0588Z" fill="black"/>
<path d="M5.68234 12.9706L5.43528 11.7353L19.7647 8.77058V3.70588H4.94116V2.47058H20.3823C20.7529 2.47058 21 2.71764 21 3.08823V9.2647C21 9.57352 20.8147 9.82058 20.5059 9.88235L5.68234 12.9706V12.9706Z" fill="black"/>
<path d="M18.5294 19.7647C17.1706 19.7647 16.0588 18.6529 16.0588 17.2941C16.0588 15.9353 17.1706 14.8235 18.5294 14.8235C19.8882 14.8235 21 15.9353 21 17.2941C21 18.6529 19.8882 19.7647 18.5294 19.7647ZM18.5294 16.0588C17.85 16.0588 17.2941 16.6147 17.2941 17.2941C17.2941 17.9735 17.85 18.5294 18.5294 18.5294C19.2088 18.5294 19.7647 17.9735 19.7647 17.2941C19.7647 16.6147 19.2088 16.0588 18.5294 16.0588Z" fill="black"/>
<path d="M3.70594 19.7647C2.34712 19.7647 1.23535 18.6529 1.23535 17.2941C1.23535 15.9353 2.34712 14.8235 3.70594 14.8235C5.06476 14.8235 6.17653 15.9353 6.17653 17.2941C6.17653 18.6529 5.06476 19.7647 3.70594 19.7647ZM3.70594 16.0588C3.02653 16.0588 2.47065 16.6147 2.47065 17.2941C2.47065 17.9735 3.02653 18.5294 3.70594 18.5294C4.38535 18.5294 4.94123 17.9735 4.94123 17.2941C4.94123 16.6147 4.38535 16.0588 3.70594 16.0588Z" fill="black"/>
</svg>
