<svg width="194" height="29" viewBox="0 0 194 29" fill="none" xmlns="http://www.w3.org/2000/svg">
<path d="M0.69 27.5L4.786 3.372H10.994L15.826 16.236L20.626 3.372H26.834L30.93 27.5H24.69L22.61 13.612L16.914 27.5H14.418L9.01 13.612L6.93 27.5H0.69ZM39.831 19.212C39.831 19.7667 39.927 20.2787 40.119 20.748C40.3323 21.196 40.599 21.5907 40.919 21.932C41.2603 22.2733 41.655 22.54 42.103 22.732C42.5723 22.924 43.063 23.02 43.575 23.02C44.087 23.02 44.567 22.924 45.015 22.732C45.4843 22.54 45.879 22.2733 46.199 21.932C46.5403 21.5907 46.807 21.196 46.999 20.748C47.2123 20.2787 47.319 19.7773 47.319 19.244C47.319 18.732 47.2123 18.252 46.999 17.804C46.807 17.3347 46.5403 16.9293 46.199 16.588C45.879 16.2467 45.4843 15.98 45.015 15.788C44.567 15.596 44.087 15.5 43.575 15.5C43.063 15.5 42.5723 15.596 42.103 15.788C41.655 15.98 41.2603 16.2467 40.919 16.588C40.599 16.9293 40.3323 17.324 40.119 17.772C39.927 18.22 39.831 18.7 39.831 19.212ZM33.719 19.148C33.719 17.932 33.9643 16.8013 34.455 15.756C34.9457 14.6893 35.6283 13.772 36.503 13.004C37.3777 12.2147 38.4123 11.596 39.607 11.148C40.823 10.7 42.1457 10.476 43.575 10.476C44.983 10.476 46.2843 10.7 47.479 11.148C48.695 11.5747 49.7403 12.1827 50.615 12.972C51.511 13.74 52.2043 14.668 52.695 15.756C53.1857 16.8227 53.431 18.0067 53.431 19.308C53.431 20.6093 53.175 21.804 52.663 22.892C52.1723 23.9587 51.4897 24.8867 50.615 25.676C49.7403 26.444 48.6843 27.0413 47.447 27.468C46.231 27.8947 44.9083 28.108 43.479 28.108C42.071 28.108 40.7697 27.8947 39.575 27.468C38.3803 27.0413 37.3457 26.4333 36.471 25.644C35.6177 24.8547 34.9457 23.916 34.455 22.828C33.9643 21.7187 33.719 20.492 33.719 19.148ZM62.1413 19.244C62.1413 19.7773 62.2373 20.2787 62.4293 20.748C62.6213 21.196 62.8773 21.5907 63.1973 21.932C63.5386 22.2733 63.9333 22.54 64.3813 22.732C64.8506 22.924 65.3519 23.02 65.8853 23.02C66.3973 23.02 66.8773 22.924 67.3253 22.732C67.7946 22.54 68.1893 22.2733 68.5093 21.932C68.8506 21.5907 69.1173 21.196 69.3093 20.748C69.5226 20.3 69.6293 19.82 69.6293 19.308C69.6293 18.796 69.5226 18.316 69.3093 17.868C69.1173 17.3987 68.8506 16.9933 68.5093 16.652C68.1893 16.3107 67.7946 16.044 67.3253 15.852C66.8773 15.66 66.3973 15.564 65.8853 15.564C65.3733 15.564 64.8826 15.66 64.4133 15.852C63.9653 16.044 63.5706 16.3107 63.2292 16.652C62.9093 16.9933 62.6426 17.388 62.4293 17.836C62.2373 18.2627 62.1413 18.732 62.1413 19.244ZM69.4373 0.939999H75.2613V27.5H69.4373V25.676C68.1999 27.2333 66.5253 28.012 64.4133 28.012C63.2186 28.012 62.1199 27.788 61.1173 27.34C60.1146 26.892 59.2399 26.2733 58.4933 25.484C57.7466 24.6947 57.1599 23.7667 56.7333 22.7C56.3279 21.6333 56.1253 20.4813 56.1253 19.244C56.1253 18.0707 56.3173 16.9613 56.7013 15.916C57.1066 14.8493 57.6719 13.9213 58.3973 13.132C59.1226 12.3427 59.9866 11.724 60.9893 11.276C62.0133 10.8067 63.1333 10.572 64.3493 10.572C66.3973 10.572 68.0933 11.2867 69.4373 12.716V0.939999ZM91.2028 16.908C91.0108 16.0973 90.6161 15.4467 90.0188 14.956C89.4214 14.4653 88.6961 14.22 87.8428 14.22C86.9468 14.22 86.2108 14.4547 85.6348 14.924C85.0801 15.3933 84.7281 16.0547 84.5788 16.908H91.2028ZM84.4188 20.268C84.4188 22.764 85.5921 24.012 87.9388 24.012C89.1974 24.012 90.1468 23.5 90.7868 22.476H96.3868C95.2561 26.2307 92.4294 28.108 87.9068 28.108C86.5201 28.108 85.2508 27.9053 84.0988 27.5C82.9468 27.0733 81.9548 26.476 81.1228 25.708C80.3121 24.94 79.6828 24.0227 79.2348 22.956C78.7868 21.8893 78.5628 20.6947 78.5628 19.372C78.5628 18.0067 78.7761 16.78 79.2028 15.692C79.6294 14.5827 80.2374 13.644 81.0268 12.876C81.8161 12.108 82.7654 11.5213 83.8748 11.116C85.0054 10.6893 86.2748 10.476 87.6828 10.476C89.0694 10.476 90.3174 10.6893 91.4268 11.116C92.5361 11.5213 93.4748 12.1187 94.2428 12.908C95.0108 13.6973 95.5974 14.668 96.0028 15.82C96.4081 16.9507 96.6108 18.2307 96.6108 19.66V20.268H84.4188ZM99.9215 11.084H105.714V13.772C106.332 12.7907 107.09 12.044 107.986 11.532C108.882 10.9987 109.927 10.732 111.122 10.732C111.271 10.732 111.431 10.732 111.602 10.732C111.794 10.732 112.007 10.7533 112.242 10.796V16.332C111.474 15.948 110.642 15.756 109.746 15.756C108.402 15.756 107.388 16.1613 106.706 16.972C106.044 17.7613 105.714 18.924 105.714 20.46V27.5H99.9215V11.084ZM114.828 11.084H120.62V13.164C121.409 12.204 122.209 11.564 123.02 11.244C123.83 10.9027 124.78 10.732 125.868 10.732C127.02 10.732 128.001 10.924 128.812 11.308C129.644 11.6707 130.348 12.1933 130.924 12.876C131.393 13.4307 131.713 14.0493 131.884 14.732C132.054 15.4147 132.14 16.1933 132.14 17.068V27.5H126.348V19.212C126.348 18.4013 126.284 17.7507 126.156 17.26C126.049 16.748 125.846 16.3427 125.548 16.044C125.292 15.788 125.004 15.6067 124.684 15.5C124.364 15.3933 124.022 15.34 123.66 15.34C122.678 15.34 121.921 15.6387 121.388 16.236C120.876 16.812 120.62 17.644 120.62 18.732V27.5H114.828V11.084ZM141.87 11.084V27.5H136.078V11.084H141.87ZM135.694 4.78C135.694 4.332 135.779 3.916 135.95 3.532C136.12 3.12667 136.355 2.77467 136.654 2.476C136.952 2.17733 137.294 1.94267 137.678 1.772C138.083 1.60133 138.51 1.516 138.958 1.516C139.406 1.516 139.822 1.60133 140.206 1.772C140.611 1.94267 140.963 2.17733 141.262 2.476C141.56 2.77467 141.795 3.12667 141.966 3.532C142.136 3.916 142.222 4.332 142.222 4.78C142.222 5.228 142.136 5.65467 141.966 6.06C141.795 6.444 141.56 6.78533 141.262 7.084C140.963 7.38267 140.611 7.61733 140.206 7.788C139.822 7.95867 139.406 8.044 138.958 8.044C138.51 8.044 138.083 7.95867 137.678 7.788C137.294 7.61733 136.952 7.38267 136.654 7.084C136.355 6.78533 136.12 6.444 135.95 6.06C135.779 5.65467 135.694 5.228 135.694 4.78ZM156.708 15.308C155.641 14.7533 154.596 14.476 153.572 14.476C153.038 14.476 152.601 14.5827 152.26 14.796C151.94 15.0093 151.78 15.2973 151.78 15.66C151.78 15.852 151.801 16.012 151.844 16.14C151.908 16.2467 152.025 16.3533 152.196 16.46C152.388 16.5667 152.654 16.6627 152.996 16.748C153.358 16.8333 153.828 16.94 154.404 17.068C156.004 17.388 157.198 17.964 157.988 18.796C158.777 19.6067 159.172 20.652 159.172 21.932C159.172 22.892 158.98 23.756 158.596 24.524C158.212 25.292 157.678 25.9427 156.996 26.476C156.313 26.988 155.492 27.3827 154.532 27.66C153.572 27.9587 152.516 28.108 151.364 28.108C149.145 28.108 146.958 27.4787 144.804 26.22L146.916 22.124C148.537 23.2333 150.073 23.788 151.524 23.788C152.057 23.788 152.494 23.6707 152.836 23.436C153.177 23.2013 153.348 22.9027 153.348 22.54C153.348 22.3267 153.316 22.156 153.252 22.028C153.209 21.8787 153.102 21.7507 152.932 21.644C152.761 21.516 152.505 21.4093 152.164 21.324C151.844 21.2173 151.417 21.1107 150.884 21.004C149.092 20.6413 147.833 20.108 147.108 19.404C146.404 18.6787 146.052 17.6867 146.052 16.428C146.052 15.5107 146.222 14.6893 146.564 13.964C146.905 13.2173 147.396 12.588 148.036 12.076C148.676 11.564 149.444 11.1693 150.34 10.892C151.257 10.6147 152.27 10.476 153.38 10.476C155.193 10.476 156.953 10.828 158.66 11.532L156.708 15.308ZM169.01 15.916V27.5H163.219V15.916H161.299V11.084H163.219V6.156H169.01V11.084H172.307V15.916H169.01ZM180.173 19.244C180.173 19.7773 180.269 20.2787 180.461 20.748C180.653 21.196 180.909 21.5907 181.229 21.932C181.57 22.2733 181.965 22.54 182.413 22.732C182.882 22.924 183.383 23.02 183.917 23.02C184.429 23.02 184.909 22.924 185.357 22.732C185.826 22.54 186.221 22.2733 186.541 21.932C186.882 21.5907 187.149 21.196 187.341 20.748C187.554 20.3 187.661 19.82 187.661 19.308C187.661 18.796 187.554 18.316 187.341 17.868C187.149 17.3987 186.882 16.9933 186.541 16.652C186.221 16.3107 185.826 16.044 185.357 15.852C184.909 15.66 184.429 15.564 183.917 15.564C183.383 15.564 182.882 15.66 182.413 15.852C181.965 16.044 181.57 16.3107 181.229 16.652C180.909 16.9933 180.653 17.388 180.461 17.836C180.269 18.2627 180.173 18.732 180.173 19.244ZM187.469 11.084H193.293V27.5H187.469V25.676C186.231 27.2333 184.557 28.012 182.445 28.012C181.25 28.012 180.151 27.7987 179.149 27.372C178.146 26.924 177.271 26.3053 176.525 25.516C175.778 24.7267 175.191 23.7987 174.765 22.732C174.359 21.6653 174.157 20.5027 174.157 19.244C174.157 18.0707 174.359 16.9613 174.765 15.916C175.17 14.8493 175.735 13.9213 176.461 13.132C177.186 12.3427 178.05 11.724 179.053 11.276C180.055 10.8067 181.165 10.572 182.381 10.572C184.429 10.572 186.125 11.2867 187.469 12.716V11.084Z" fill="black"/>
</svg>
